<?xml version="1.0" encoding="utf-8"?>
<!-- Generator: Adobe Illustrator 16.0.0, SVG Export Plug-In . SVG Version: 6.00 Build 0)  -->
<!DOCTYPE svg PUBLIC "-//W3C//DTD SVG 1.1//EN" "http://www.w3.org/Graphics/SVG/1.1/DTD/svg11.dtd">
<svg version="1.1" id="Layer_1" xmlns="http://www.w3.org/2000/svg" xmlns:xlink="http://www.w3.org/1999/xlink" x="0px" y="0px"
	 width="1224px" height="792px" viewBox="0 0 1224 792" enable-background="new 0 0 1224 792" xml:space="preserve">
<g>
	<defs>
		<rect id="SVGID_1_" y="4.27" width="1224" height="557.354"/>
	</defs>
	<clipPath id="SVGID_2_">
		<use xlink:href="#SVGID_1_"  overflow="visible"/>
	</clipPath>
	<polygon opacity="0.9" clip-path="url(#SVGID_2_)" fill="#083C5D" points="994.495,105.793 1223.996,4.27 1376.998,91.859 	"/>
	<polygon opacity="0.95" clip-path="url(#SVGID_2_)" fill="#083C5D" points="-168.302,119.729 -0.003,4.27 198.896,57.024 	"/>
	<polygon opacity="0.85" clip-path="url(#SVGID_2_)" fill="#083C5D" points="1223.996,4.27 994.495,105.793 917.993,4.27 	"/>
	<polygon opacity="0.9" clip-path="url(#SVGID_2_)" fill="#083C5D" points="764.997,63.991 917.996,4.27 994.498,105.793 	"/>
	<polygon opacity="0.92" clip-path="url(#SVGID_2_)" fill="#083C5D" points="917.996,4.27 764.997,63.991 611.995,4.27 	"/>
	<polygon opacity="0.95" clip-path="url(#SVGID_2_)" fill="#083C5D" points="566.095,112.76 611.995,4.27 764.997,63.991 	"/>
	<polygon opacity="0.9" clip-path="url(#SVGID_2_)" fill="#083C5D" points="611.995,4.27 566.095,112.76 305.992,4.27 	"/>
	<polygon opacity="0.85" clip-path="url(#SVGID_2_)" fill="#083C5D" points="198.893,57.024 305.996,4.27 566.095,112.76 	"/>
	<polygon opacity="0.9" clip-path="url(#SVGID_2_)" fill="#083C5D" points="305.996,4.27 198.893,57.024 -0.006,4.27 	"/>
	<polygon opacity="0.65" clip-path="url(#SVGID_2_)" fill="#0A4065" points="198.896,57.024 -0.003,207.317 -168.302,119.729 	"/>
	<polygon opacity="0.65" clip-path="url(#SVGID_2_)" fill="#0A4065" points="1376.998,91.859 1223.996,193.383 994.498,105.793 	"/>
	<polygon opacity="0.63" clip-path="url(#SVGID_2_)" fill="#0A4065" points="-0.003,207.317 198.896,57.024 305.996,144.613 	"/>
	<polygon opacity="0.65" clip-path="url(#SVGID_2_)" fill="#0A4065" points="566.098,112.76 305.996,144.613 198.896,57.024 	"/>
	<polygon opacity="0.6" clip-path="url(#SVGID_2_)" fill="#0A4065" points="305.996,144.613 566.098,112.76 673.197,200.348 	"/>
	<polygon opacity="0.65" clip-path="url(#SVGID_2_)" fill="#0A4065" points="765,63.991 673.197,200.348 566.098,112.76 	"/>
	<polygon opacity="0.6" clip-path="url(#SVGID_2_)" fill="#0A4065" points="673.197,200.348 765,63.991 918,158.548 	"/>
	<polygon opacity="0.6" clip-path="url(#SVGID_2_)" fill="#0A4065" points="994.501,105.793 917.996,158.548 764.997,63.991 	"/>
	<polygon opacity="0.6" clip-path="url(#SVGID_2_)" fill="#0A4065" points="917.996,158.548 994.501,105.793 1224,193.383 	"/>
	<polygon opacity="0.34" clip-path="url(#SVGID_2_)" fill="#0A4065" points="1040.395,239.171 1223.996,193.383 1376.998,267.038 	
		"/>
	<polygon opacity="0.4" clip-path="url(#SVGID_2_)" fill="#0A4065" points="-153.004,267.038 -0.003,207.317 183.598,287.938 	"/>
	<polygon opacity="0.4" clip-path="url(#SVGID_2_)" fill="#0A4065" points="1223.996,193.383 1040.395,239.171 917.996,158.548 	"/>
	<polygon opacity="0.42" clip-path="url(#SVGID_2_)" fill="#0A4065" points="764.997,267.038 917.996,158.548 1040.395,239.171 	"/>
	<polygon opacity="0.35" clip-path="url(#SVGID_2_)" fill="#0A4065" points="917.996,158.548 764.997,267.038 673.195,200.348 	"/>
	<polygon opacity="0.4" clip-path="url(#SVGID_2_)" fill="#0A4065" points="458.994,267.038 673.195,200.348 764.997,267.038 	"/>
	<polygon opacity="0.37" clip-path="url(#SVGID_2_)" fill="#0A4065" points="673.195,200.348 458.994,267.038 305.992,144.613 	"/>
	<polygon opacity="0.4" clip-path="url(#SVGID_2_)" fill="#0A4065" points="183.595,287.938 305.996,144.613 458.998,267.038 	"/>
	<polygon opacity="0.35" clip-path="url(#SVGID_2_)" fill="#0A4065" points="305.996,144.613 183.595,287.938 -0.006,207.317 	"/>
	<polygon opacity="0.2" clip-path="url(#SVGID_2_)" fill="#0A4065" points="183.598,287.938 -0.003,354.627 -153.004,267.038 	"/>
	<polygon opacity="0.2" clip-path="url(#SVGID_2_)" fill="#0A4065" points="1376.998,267.038 1223.996,333.726 1040.395,239.171 	
		"/>
	<polygon opacity="0.24" clip-path="url(#SVGID_2_)" fill="#0A4065" points="-0.003,354.627 183.598,287.938 336.595,340.692 	"/>
	<polygon opacity="0.15" clip-path="url(#SVGID_2_)" fill="#0A4065" points="458.998,267.038 336.595,340.692 183.598,287.938 	"/>
	<polygon opacity="0.25" clip-path="url(#SVGID_2_)" fill="#0A4065" points="336.595,340.692 458.998,267.038 611.999,354.627 	"/>
	<polygon opacity="0.22" clip-path="url(#SVGID_2_)" fill="#0A4065" points="765,267.038 611.999,354.627 458.998,267.038 	"/>
	<polygon opacity="0.25" clip-path="url(#SVGID_2_)" fill="#0A4065" points="611.999,354.627 765,267.038 918,305.859 	"/>
	<polygon opacity="0.2" clip-path="url(#SVGID_2_)" fill="#0A4065" points="1040.398,239.171 917.996,305.859 764.997,267.038 	"/>
	<polygon opacity="0.23" clip-path="url(#SVGID_2_)" fill="#0A4065" points="917.996,305.859 1040.398,239.171 1224,333.726 	"/>
	<polygon opacity="0.03" clip-path="url(#SVGID_2_)" fill="#0A4065" points="152.998,503.799 -0.003,354.627 -153.004,441.094 	"/>
	<polygon opacity="0.02" clip-path="url(#SVGID_2_)" fill="#0A4065" points="1376.998,434.13 1223.996,333.726 1070.996,468.965 	
		"/>
	<polygon opacity="0.1" clip-path="url(#SVGID_2_)" fill="#0A4065" points="-0.003,354.627 152.998,503.799 336.595,340.692 	"/>
	<polygon opacity="0.07" clip-path="url(#SVGID_2_)" fill="#0A4065" points="458.998,427.162 336.595,340.692 152.998,503.799 	"/>
	<polygon opacity="0.1" clip-path="url(#SVGID_2_)" fill="#0A4065" points="336.595,340.692 458.998,427.162 611.999,354.627 	"/>
	<polygon opacity="0.04" clip-path="url(#SVGID_2_)" fill="#0A4065" points="765,406.263 611.999,354.627 458.998,427.162 	"/>
	<polygon opacity="0.1" clip-path="url(#SVGID_2_)" fill="#0A4065" points="611.999,354.627 765,406.263 918,305.859 	"/>
	<polygon opacity="0.05" clip-path="url(#SVGID_2_)" fill="#0A4065" points="1070.998,468.965 917.996,305.859 764.997,406.263 	"/>
	<polygon opacity="0.1" clip-path="url(#SVGID_2_)" fill="#0A4065" points="917.996,305.859 1070.998,468.965 1224,333.726 	"/>
	<g clip-path="url(#SVGID_2_)">
		<polygon opacity="0.9" fill="#083C5D" points="121.146,-44.865 -163.086,-170.6 -352.574,-62.121 		"/>
		<polygon opacity="0.95" fill="#083C5D" points="1561.27,-27.606 1352.828,-170.6 1106.492,-105.263 		"/>
		<polygon opacity="0.85" fill="#083C5D" points="-163.086,-170.6 121.146,-44.865 215.892,-170.6 		"/>
		<polygon opacity="0.9" fill="#083C5D" points="405.383,-96.635 215.892,-170.6 121.146,-44.865 		"/>
		<polygon opacity="0.92" fill="#083C5D" points="215.892,-170.6 405.383,-96.635 594.875,-170.6 		"/>
		<polygon opacity="0.95" fill="#083C5D" points="651.723,-36.235 594.875,-170.6 405.383,-96.635 		"/>
		<polygon opacity="0.9" fill="#083C5D" points="594.875,-170.6 651.723,-36.235 973.854,-170.6 		"/>
		<polygon opacity="0.85" fill="#083C5D" points="1106.498,-105.263 973.854,-170.6 651.72,-36.235 		"/>
		<polygon opacity="0.9" fill="#083C5D" points="973.854,-170.6 1106.498,-105.263 1352.835,-170.6 		"/>
		<polygon opacity="0.65" fill="#0A4065" points="1106.492,-105.263 1352.828,80.872 1561.27,-27.606 		"/>
		<polygon opacity="0.65" fill="#0A4065" points="-352.574,-62.121 -163.086,63.615 121.146,-44.865 		"/>
		<polygon opacity="0.63" fill="#0A4065" points="1352.828,80.872 1106.492,-105.263 973.85,3.216 		"/>
		<polygon opacity="0.65" fill="#0A4065" points="651.717,-36.235 973.85,3.216 1106.492,-105.263 		"/>
		<polygon opacity="0.6" fill="#0A4065" points="973.85,3.216 651.717,-36.235 519.074,72.244 		"/>
		<polygon opacity="0.65" fill="#0A4065" points="405.379,-96.635 519.074,72.244 651.717,-36.235 		"/>
		<polygon opacity="0.6" fill="#0A4065" points="519.074,72.244 405.379,-96.635 215.889,20.474 		"/>
		<polygon opacity="0.6" fill="#0A4065" points="121.143,-44.865 215.892,20.474 405.379,-96.635 		"/>
		<polygon opacity="0.6" fill="#0A4065" points="215.892,20.474 121.143,-44.865 -163.089,63.615 		"/>
		<polygon opacity="0.34" fill="#0A4065" points="64.3,120.323 -163.086,63.615 -352.574,154.835 		"/>
		<polygon opacity="0.4" fill="#0A4065" points="1542.319,154.835 1352.828,80.872 1125.442,180.722 		"/>
		<polygon opacity="0.4" fill="#0A4065" points="-163.086,63.615 64.3,120.323 215.892,20.474 		"/>
		<polygon opacity="0.42" fill="#0A4065" points="405.383,154.835 215.892,20.474 64.3,120.323 		"/>
		<polygon opacity="0.35" fill="#0A4065" points="215.892,20.474 405.383,154.835 519.078,72.244 		"/>
		<polygon opacity="0.4" fill="#0A4065" points="784.364,154.835 519.078,72.244 405.383,154.835 		"/>
		<polygon opacity="0.37" fill="#0A4065" points="519.078,72.244 784.364,154.835 973.854,3.216 		"/>
		<polygon opacity="0.4" fill="#0A4065" points="1125.448,180.722 973.854,3.216 784.364,154.835 		"/>
		<polygon opacity="0.35" fill="#0A4065" points="973.854,3.216 1125.448,180.722 1352.835,80.872 		"/>
		<polygon opacity="0.2" fill="#0A4065" points="1125.442,180.722 1352.828,263.315 1542.319,154.835 		"/>
		<polygon opacity="0.2" fill="#0A4065" points="-352.574,154.835 -163.086,237.43 64.3,120.323 		"/>
		<polygon opacity="0.24" fill="#0A4065" points="1352.828,263.315 1125.442,180.722 935.954,246.058 		"/>
		<polygon opacity="0.15" fill="#0A4065" points="784.359,154.835 935.954,246.058 1125.442,180.722 		"/>
		<polygon opacity="0.25" fill="#0A4065" points="935.954,246.058 784.359,154.835 594.871,263.315 		"/>
		<polygon opacity="0.22" fill="#0A4065" points="405.379,154.835 594.871,263.315 784.359,154.835 		"/>
		<polygon opacity="0.25" fill="#0A4065" points="594.871,263.315 405.379,154.835 215.889,202.916 		"/>
		<polygon opacity="0.2" fill="#0A4065" points="64.297,120.323 215.892,202.916 405.379,154.835 		"/>
		<polygon opacity="0.23" fill="#0A4065" points="215.892,202.916 64.297,120.323 -163.089,237.43 		"/>
		<polygon opacity="0.03" fill="#0A4065" points="1163.341,448.062 1352.828,263.315 1542.319,370.405 		"/>
		<polygon opacity="0.02" fill="#0A4065" points="-352.574,361.778 -163.086,237.43 26.404,404.919 		"/>
		<polygon opacity="0.1" fill="#0A4065" points="1352.828,263.315 1163.341,448.062 935.954,246.058 		"/>
		<polygon opacity="0.07" fill="#0A4065" points="784.359,353.151 935.954,246.058 1163.341,448.062 		"/>
		<polygon opacity="0.1" fill="#0A4065" points="935.954,246.058 784.359,353.151 594.871,263.315 		"/>
		<polygon opacity="0.04" fill="#0A4065" points="405.379,327.263 594.871,263.315 784.359,353.151 		"/>
		<polygon opacity="0.1" fill="#0A4065" points="594.871,263.315 405.379,327.263 215.889,202.916 		"/>
		<polygon opacity="0.05" fill="#0A4065" points="26.4,404.919 215.892,202.916 405.379,327.263 		"/>
		<polygon opacity="0.1" fill="#0A4065" points="215.892,202.916 26.4,404.919 -163.089,237.43 		"/>
	</g>
	<g clip-path="url(#SVGID_2_)">
		<polygon opacity="0.9" fill="#083C5D" points="1179.345,-72.73 1463.578,-198.467 1653.068,-89.989 		"/>
		<polygon opacity="0.95" fill="#083C5D" points="-260.775,-55.473 -52.338,-198.467 193.999,-133.131 		"/>
		<polygon opacity="0.85" fill="#083C5D" points="1463.578,-198.467 1179.345,-72.73 1084.601,-198.467 		"/>
		<polygon opacity="0.9" fill="#083C5D" points="895.111,-124.501 1084.601,-198.467 1179.345,-72.73 		"/>
		<polygon opacity="0.92" fill="#083C5D" points="1084.601,-198.467 895.111,-124.501 705.62,-198.467 		"/>
		<polygon opacity="0.95" fill="#083C5D" points="648.771,-64.103 705.62,-198.467 895.111,-124.501 		"/>
		<polygon opacity="0.9" fill="#083C5D" points="705.62,-198.467 648.771,-64.103 326.637,-198.467 		"/>
		<polygon opacity="0.85" fill="#083C5D" points="193.995,-133.131 326.641,-198.467 648.773,-64.103 		"/>
		<polygon opacity="0.9" fill="#083C5D" points="326.641,-198.467 193.995,-133.131 -52.342,-198.467 		"/>
		<polygon opacity="0.65" fill="#0A4065" points="193.999,-133.131 -52.338,53.001 -260.775,-55.473 		"/>
		<polygon opacity="0.65" fill="#0A4065" points="1653.068,-89.989 1463.578,35.748 1179.345,-72.73 		"/>
		<polygon opacity="0.63" fill="#0A4065" points="-52.338,53.001 193.999,-133.131 326.643,-24.652 		"/>
		<polygon opacity="0.65" fill="#0A4065" points="648.777,-64.103 326.643,-24.652 193.999,-133.131 		"/>
		<polygon opacity="0.6" fill="#0A4065" points="326.643,-24.652 648.777,-64.103 781.419,44.376 		"/>
		<polygon opacity="0.65" fill="#0A4065" points="895.114,-124.501 781.419,44.376 648.777,-64.103 		"/>
		<polygon opacity="0.6" fill="#0A4065" points="781.419,44.376 895.114,-124.501 1084.604,-7.396 		"/>
		<polygon opacity="0.6" fill="#0A4065" points="1179.351,-72.73 1084.601,-7.396 895.114,-124.501 		"/>
		<polygon opacity="0.6" fill="#0A4065" points="1084.601,-7.396 1179.351,-72.73 1463.585,35.748 		"/>
		<polygon opacity="0.34" fill="#0A4065" points="1236.192,92.457 1463.578,35.748 1653.068,126.968 		"/>
		<polygon opacity="0.4" fill="#0A4065" points="-241.826,126.968 -52.338,53.001 175.049,152.855 		"/>
		<polygon opacity="0.4" fill="#0A4065" points="1463.578,35.748 1236.192,92.457 1084.601,-7.396 		"/>
		<polygon opacity="0.42" fill="#0A4065" points="895.111,126.968 1084.601,-7.396 1236.192,92.457 		"/>
		<polygon opacity="0.35" fill="#0A4065" points="1084.601,-7.396 895.111,126.968 781.416,44.376 		"/>
		<polygon opacity="0.4" fill="#0A4065" points="516.129,126.968 781.416,44.376 895.111,126.968 		"/>
		<polygon opacity="0.37" fill="#0A4065" points="781.416,44.376 516.129,126.968 326.637,-24.652 		"/>
		<polygon opacity="0.4" fill="#0A4065" points="175.046,152.855 326.641,-24.652 516.129,126.968 		"/>
		<polygon opacity="0.35" fill="#0A4065" points="326.641,-24.652 175.046,152.855 -52.342,53.001 		"/>
		<polygon opacity="0.2" fill="#0A4065" points="175.049,152.855 -52.338,235.448 -241.826,126.968 		"/>
		<polygon opacity="0.2" fill="#0A4065" points="1653.068,126.968 1463.578,209.561 1236.192,92.457 		"/>
		<polygon opacity="0.24" fill="#0A4065" points="-52.338,235.448 175.049,152.855 364.54,218.19 		"/>
		<polygon opacity="0.15" fill="#0A4065" points="516.131,126.968 364.54,218.19 175.049,152.855 		"/>
		<polygon opacity="0.25" fill="#0A4065" points="364.54,218.19 516.131,126.968 705.624,235.448 		"/>
		<polygon opacity="0.22" fill="#0A4065" points="895.114,126.968 705.624,235.448 516.131,126.968 		"/>
		<polygon opacity="0.25" fill="#0A4065" points="705.624,235.448 895.114,126.968 1084.604,175.048 		"/>
		<polygon opacity="0.2" fill="#0A4065" points="1236.192,92.457 1084.601,175.048 895.114,126.968 		"/>
		<polygon opacity="0.23" fill="#0A4065" points="1084.601,175.048 1236.192,92.457 1463.585,209.561 		"/>
		<polygon opacity="0.03" fill="#0A4065" points="137.153,420.194 -52.338,235.448 -241.826,342.54 		"/>
		<polygon opacity="0.02" fill="#0A4065" points="1653.068,333.91 1463.578,209.561 1274.09,377.051 		"/>
		<polygon opacity="0.1" fill="#0A4065" points="-52.338,235.448 137.153,420.194 364.54,218.19 		"/>
		<polygon opacity="0.07" fill="#0A4065" points="516.131,325.281 364.54,218.19 137.153,420.194 		"/>
		<polygon opacity="0.1" fill="#0A4065" points="364.54,218.19 516.131,325.281 705.624,235.448 		"/>
		<polygon opacity="0.04" fill="#0A4065" points="895.114,299.397 705.624,235.448 516.131,325.281 		"/>
		<polygon opacity="0.1" fill="#0A4065" points="705.624,235.448 895.114,299.397 1084.604,175.048 		"/>
		<polygon opacity="0.05" fill="#0A4065" points="1274.093,377.051 1084.601,175.048 895.114,299.397 		"/>
		<polygon opacity="0.1" fill="#0A4065" points="1084.601,175.048 1274.093,377.051 1463.585,209.561 		"/>
	</g>
</g>
</svg>
